<?xml version="1.0" encoding="UTF-8"?>
<svg width="256px" height="256px" viewBox="0 0 256 256" version="1.1" xmlns="http://www.w3.org/2000/svg" xmlns:xlink="http://www.w3.org/1999/xlink">
    <!-- Generator: Sketch 48.2 (47327) - http://www.bohemiancoding.com/sketch -->
    <title>icon</title>
    <desc>Created with Sketch.</desc>
    <defs>
        <linearGradient x1="102.990308%" y1="-2.89057184%" x2="0.254141452%" y2="100.251236%" id="linearGradient-1">
            <stop stop-color="#F84100" offset="0%"></stop>
            <stop stop-color="#F9D213" offset="100%"></stop>
        </linearGradient>
    </defs>
    <g id="Page-1" stroke="none" stroke-width="1" fill="none" fill-rule="evenodd">
        <g id="icon">
            <g id="logo" transform="translate(35.000000, 13.000000)" fill="url(#linearGradient-1)">
                <g id="logo_sq" transform="translate(0.000000, -24.302717)">
                    <path d="M130.777478,14.1446291 L107.304717,14.1446291 L107.304717,37.6175101 L130.777478,37.6175101 L130.777478,14.1446291 Z M107.177226,42.5077487 L129.289082,42.5077487 L129.289082,64.6201454 L107.177226,64.6201454 L107.177226,42.5077487 Z M80.0896172,43.8258965 L101.436527,43.8258965 L101.436527,65.1728064 L80.0896172,65.1728064 L80.0896172,43.8258965 Z M78.6012209,71.083694 L101.989188,71.083694 L101.989188,94.4710599 L78.6012209,94.4710599 L78.6012209,71.083694 Z M107.857378,71.5936577 L129.204288,71.5936577 L129.204288,92.9405676 L107.857378,92.9405676 L107.857378,71.5936577 Z M52.6730574,74.7508619 L70.5115618,74.7508619 L70.5115618,92.5899676 L52.6730574,92.5899676 L52.6730574,74.7508619 Z M77.6660871,99.744493 L101.054054,99.744493 L101.054054,123.131859 L77.6660871,123.131859 L77.6660871,99.744493 Z M54.192725,104.50676 L67.3327082,104.50676 L67.3327082,117.646743 L54.192725,117.646743 L54.192725,104.50676 Z M112.790435,105.272306 L125.929817,105.272306 L125.929817,118.41229 L112.790435,118.41229 L112.790435,105.272306 Z M97.0140358,129.340426 L83.874654,129.340426 L83.874654,142.480409 L97.0140358,142.480409 L97.0140358,129.340426 Z M34.208741,137.761657 L47.3481227,137.761657 L47.3481227,150.90164 L34.208741,150.90164 L34.208741,137.761657 Z" id="Shape" transform="translate(82.493109, 82.523135) scale(1, -1) rotate(45.000000) translate(-82.493109, -82.523135) "></path>
                    <path d="M117.947512,58.7026039 L141.420273,58.7026039 L141.420273,82.175545 L117.947512,82.175545 L117.947512,58.7026039 Z M141.122594,88.0863124 L117.649833,88.0863124 L117.649833,111.559193 L141.122594,111.559193 L141.122594,88.0863124 Z M94.0279319,92.9552023 L107.167915,92.9552023 L107.167915,106.094945 L94.0279319,106.094945 L94.0279319,92.9552023 Z M117.522342,116.449432 L139.634197,116.449432 L139.634197,138.561829 L117.522342,138.561829 L117.522342,116.449432 Z M83.1635413,116.959696 L60.8808962,116.959696 L60.8808962,139.241981 L83.1635413,139.241981 L83.1635413,116.959696 Z M90.4347328,117.76758 L111.781643,117.76758 L111.781643,139.11449 L90.4347328,139.11449 L90.4347328,117.76758 Z M88.9463366,145.025377 L112.334304,145.025377 L112.334304,168.412743 L88.9463366,168.412743 L88.9463366,145.025377 Z M118.202494,145.535341 L139.549404,145.535341 L139.549404,166.882251 L118.202494,166.882251 L118.202494,145.535341 Z M63.0181731,148.692545 L80.8566774,148.692545 L80.8566774,166.531651 L63.0181731,166.531651 L63.0181731,148.692545 Z M88.0112028,173.686176 L111.39917,173.686176 L111.39917,197.073542 L88.0112028,197.073542 L88.0112028,173.686176 Z M64.5378407,178.448443 L77.6778238,178.448443 L77.6778238,191.588426 L64.5378407,191.588426 L64.5378407,178.448443 Z M123.13555,179.21399 L136.274932,179.21399 L136.274932,192.353973 L123.13555,192.353973 L123.13555,179.21399 Z M107.359151,203.282109 L94.2197696,203.282109 L94.2197696,216.422092 L107.359151,216.422092 L107.359151,203.282109 Z M44.5538566,211.703341 L57.6932384,211.703341 L57.6932384,224.843324 L44.5538566,224.843324 L44.5538566,211.703341 Z" id="Shape" transform="translate(92.987065, 141.772964) rotate(45.000000) translate(-92.987065, -141.772964) "></path>
                </g>
            </g>
            <path d="M43,222.450068 C43,225.385788 42.0194273,227.643745 40.0582524,229.224008 C38.0970776,230.804271 35.2912804,231.594391 31.6407767,231.594391 L28.3009709,231.594391 L28.3009709,243 L25,243 L25,214 L32.3592233,214 C39.4531099,214 43,216.816661 43,222.450068 Z M28,229 L30.8967298,229 C33.7492971,229 35.8129598,228.508422 37.0877797,227.525253 C38.3625996,226.542083 39,224.966341 39,222.79798 C39,220.845108 38.400465,219.390577 37.2013769,218.434343 C36.0022889,217.47811 34.134264,217 31.5972461,217 L28,217 L28,229 Z M49,243 L49,214 L52,214 L52,243 L49,243 Z M78,243 L74.3584906,243 L66.9433962,230.245554 L59.3962264,243 L56,243 L65.1698113,227.845417 L56.6226415,214 L60.1698113,214 L67.0188679,225.484952 L73.9245283,214 L77.3396226,214 L68.7924528,227.726402 L78,243 Z M99,243 L83,243 L83,214 L99,214 L99,216.995212 L86.3374233,216.995212 L86.3374233,226.337893 L98.2343558,226.337893 L98.2343558,229.313269 L86.3374233,229.313269 L86.3374233,239.984952 L99,239.984952 L99,243 Z M104,243 L104,214 L107.337423,214 L107.337423,239.94528 L120,239.94528 L120,243 L104,243 Z M141,243 L125,243 L125,214 L141,214 L141,216.995212 L128.337423,216.995212 L128.337423,226.337893 L140.234356,226.337893 L140.234356,229.313269 L128.337423,229.313269 L128.337423,239.984952 L141,239.984952 L141,243 Z M150.300971,230.939808 L150.300971,243 L147,243 L147,214 L154.786408,214 C158.268626,214 160.841416,214.681024 162.504854,216.043092 C164.168293,217.40516 165,219.454843 165,222.192202 C165,226.027151 163.097106,228.619008 159.291262,229.967852 L167,243 L163.097087,243 L156.223301,230.939808 L150.300971,230.939808 Z M150,228 L154.41136,228 C156.683316,228 158.349392,227.531012 159.409639,226.593023 C160.469885,225.655034 161,224.248071 161,222.372093 C161,220.469877 160.460418,219.09899 159.381239,218.259392 C158.30206,217.419793 156.569719,217 154.184165,217 L150,217 L150,228 Z M188.604938,243 L185.094136,233.814033 L173.790123,233.814033 L170.317901,243 L167,243 L178.149691,214 L180.908179,214 L192,243 L188.604938,243 Z M184,231 L180.765328,222.131024 C180.346721,221.008529 179.915436,219.631534 179.471459,218 C179.192388,219.253018 178.792814,220.630013 178.272727,222.131024 L175,231 L184,231 Z M202.12865,243 L198.87135,243 L198.87135,216.995212 L190,216.995212 L190,214 L211,214 L211,216.995212 L202.12865,216.995212 L202.12865,243 Z M231,243 L215,243 L215,214 L231,214 L231,216.995212 L218.337423,216.995212 L218.337423,226.337893 L230.234356,226.337893 L230.234356,229.313269 L218.337423,229.313269 L218.337423,239.984952 L231,239.984952 L231,243 Z" id="PIXELERATE" fill="#000000"></path>
        </g>
    </g>
</svg>